<?xml version="1.0" encoding="UTF-8" standalone="yes"?>
<svg version="1.1" id="Layer_1" xmlns="http://www.w3.org/2000/svg" xmlns:xlink="http://www.w3.org/1999/xlink" x="0px" y="0px" viewBox="0 0 251.3 314.1" style="enable-background:new 0 0 251.3 314.1;" xml:space="preserve">
      <style type="text/css">.xxxxxx{fill:#8C8C8C;}</style>
    <g id="color_index_4" fill="#a7ff76">
              <g>
                      <path d="M227.8,274.9c0.1,4.4-3.4,7.9-7.8,8s-7.9-3.4-8-7.8s3.4-7.9,7.8-8c0,0,0.1,0,0.1,0C224.2,267,227.7,270.5,227.8,274.9z"/>
            <path d="M247.4,43.3c0,6.5-5.3,11.8-11.8,11.8c-6.5,0-11.8-5.3-11.8-11.8c0-6.5,5.3-11.8,11.8-11.8l0,0C242.1,31.5,247.4,36.7,247.4,43.3z"/>
                  </g>
          </g>
    <g id="color_index_3" fill="#4f8ed8">
              <path d="M125.7,168.8c8.7,0,15.7,7.1,15.6,15.8c0,4.9-2.4,9.6-6.3,12.5c4,5.2,3,12.6-2.2,16.5c-5.2,4-12.6,3-16.5-2.2c-3.3-4.2-3.3-10.2,0-14.4c-7-5.2-8.4-15-3.2-22c2.9-4,7.6-6.3,12.5-6.3H125.7z"/>
          </g>
    <g id="color_index_2" fill="#22e0f4">
              <path d="M188.5,66.8v32.2c-3.2-0.5-6.5-0.8-9.7-0.8c-4.7,0-9.4,0.6-13.9,1.7V66.8c1.1-21.7-15.6-40.1-37.3-41.2c-21.7-1.1-40.1,15.6-41.2,37.3c-0.1,1.3-0.1,2.6,0,4v33.1c-4.5-1.1-9.2-1.7-13.9-1.7c-3.2,0-6.5,0.3-9.7,0.8V66.8C62.8,32.1,90.9,4,125.6,4c34.7,0,62.8,28.1,62.8,62.8H188.5z"/>
          </g>
    <g id="color_index_1" fill="#ffa1c4">
              <g>
                      <circle cx="11.9" cy="62.9" r="7.9"/>
            <path d="M188.5,98.9c-3.2-0.5-6.5-0.8-9.7-0.8c-4.7,0-9.4,0.6-13.9,1.7c-16.8,4.2-31.1,15.3-39.2,30.7c-8.1-15.4-22.4-26.5-39.3-30.7c-4.5-1.1-9.2-1.7-13.9-1.7c-3.2,0-6.5,0.3-9.7,0.8c-29.8,5.5-51.4,31.7-51,62c0,82.4,79.7,117.8,113.8,149.2c34.2-31.4,113.8-66.7,113.8-149.2C239.7,130.7,218.2,104.5,188.5,98.9z M135,211.4c-4.4,4.8-11.9,5.2-16.7,0.8c-4.3-3.9-5.1-10.3-1.9-15.2c-7-5.2-8.4-15-3.3-22c5.2-7,15-8.4,22-3.3s8.4,15,3.3,22c-0.9,1.2-2,2.3-3.3,3.3C138.3,201.3,138.3,207.2,135,211.4z"/>
                  </g>
          </g>
    <g id="color_index_0" fill="#1d387f">
              <g>
                      <path d="M139.6,170.7c-3.7-3.7-8.7-5.8-13.9-5.8c-5.2,0-10.2,2-13.9,5.7c-3.7,3.7-5.8,8.7-5.8,13.9c0,5,1.9,9.8,5.3,13.5c-3.5,7.9,0.1,17.2,8,20.7c7.9,3.5,17.2-0.1,20.7-8c1.8-4.1,1.8-8.7,0-12.7c7.2-7.7,7-19.7-0.4-27.2L139.6,170.7z M137.4,184.6c0,3.7-1.8,7.2-4.8,9.4c-1.8,1.2-2.2,3.7-0.9,5.4c0,0.1,0.1,0.1,0.1,0.2c2.7,3.5,2,8.4-1.4,11.1c-3.5,2.7-8.4,2-11.1-1.4c-2.2-2.8-2.2-6.8,0-9.7c1.3-1.7,1-4.2-0.8-5.5c0,0,0,0,0,0c-3-2.2-4.8-5.8-4.8-9.5c-0.1-6.5,5.2-11.8,11.7-11.9c0.1,0,0.2,0,0.3,0l0,0c6.5,0.1,11.7,5.3,11.7,11.8L137.4,184.6z"/>
            <path d="M192.4,95.8v-29c0-36.9-29.9-66.8-66.8-66.8S58.9,29.9,58.9,66.8l0,0v29c-30.2,7-51.4,34.2-51,65.2c0,66.5,50.8,103.6,87.9,130.8c10.2,7.5,19.9,14.6,27.2,21.3c1.5,1.4,3.8,1.4,5.3,0c7.3-6.7,17-13.8,27.2-21.3c37.1-27.2,87.9-64.3,87.9-130.7C243.8,130,222.6,102.8,192.4,95.8z M66.8,66.8c0-32.5,26.4-58.9,58.9-58.9c32.5,0,58.9,26.4,58.9,58.9v27.8l-5.8-0.3l0,0c-3.3,0-6.6,0.3-9.9,0.8V66.8c0-23.9-19.4-43.2-43.2-43.2c-23.8,0-43.2,19.3-43.2,43.2v28.3c-3.3-0.5-6.6-0.8-9.9-0.8l0,0l-5.8,0.3L66.8,66.8z M161,66.8v30.1c-14.4,4.3-26.9,13.6-35.3,26.1c-8.4-12.5-20.9-21.8-35.3-26.1V66.8c0-19.5,15.8-35.4,35.3-35.4c19.5,0,35.4,15.8,35.4,35.4l0,0H161z M150.9,285.5c-9.3,6.8-18,13.2-25.2,19.5c-7.2-6.3-16-12.7-25.2-19.5c-37.7-27.6-84.7-62-84.7-124.5c-0.4-28.4,19.7-53,47.7-58.1c3-0.5,6.1-0.7,9.1-0.7l0,0c4.3,0,8.7,0.5,12.9,1.6c15.8,3.9,29.1,14.4,36.7,28.8c1.2,1.9,3.8,2.5,5.7,1.2c0.5-0.3,0.9-0.7,1.2-1.2c7.6-14.4,20.9-24.9,36.7-28.8c4.2-1.1,8.6-1.6,12.9-1.6c3,0,6.1,0.2,9.1,0.7c28,5.1,48.3,29.7,47.8,58.2C235.6,223.4,188.7,257.9,150.9,285.5z"/>
            <path d="M23.6,62.9c0-6.5-5.3-11.8-11.8-11.8S0,56.3,0,62.9c0,6.5,5.3,11.8,11.8,11.8C18.3,74.7,23.6,69.4,23.6,62.9L23.6,62.9z M7.9,62.9c0-2.2,1.7-3.9,3.9-3.9s3.9,1.7,3.9,3.9c0,2.2-1.7,3.9-3.9,3.9h0C9.6,66.8,7.9,65,7.9,62.9z"/>
            <path d="M235.6,27.6c-8.7,0-15.7,7-15.7,15.7s7,15.7,15.7,15.7c8.7,0,15.7-7,15.7-15.7S244.2,27.6,235.6,27.6L235.6,27.6z M235.6,51.2c-4.4,0.1-7.9-3.4-8-7.8c-0.1-4.4,3.4-7.9,7.8-8s7.9,3.4,8,7.8c0,0,0,0.1,0,0.1c-0.1,4.3-3.5,7.7-7.8,7.8V51.2z"/>
            <path d="M219.9,263.1c-6.5,0-11.8,5.3-11.8,11.8s5.3,11.8,11.8,11.8s11.8-5.3,11.8-11.8v0C231.7,268.3,226.4,263.1,219.9,263.1z M219.9,278.8c-2.2,0-3.9-1.7-3.9-3.9c0-2.2,1.7-3.9,3.9-3.9c2.2,0,3.9,1.7,3.9,3.9l0,0C223.8,277,222,278.8,219.9,278.8z"/>
                  </g>
          </g>
  </svg>